<?xml version="1.0" encoding="utf-8"?>
<!-- Generator: Adobe Illustrator 21.0.2, SVG Export Plug-In . SVG Version: 6.00 Build 0)  -->
<svg version="1.1" id="Layer_1" xmlns="http://www.w3.org/2000/svg" xmlns:xlink="http://www.w3.org/1999/xlink" x="0px" y="0px"
	 viewBox="0 0 597 257.3" style="enable-background:new 0 0 597 257.3;" xml:space="preserve">
<style type="text/css">
	.st0{fill:#5F6161;}
	.st1{fill:#AEAEAF;}
	.st2{fill:#F28831;}
	.st3{fill:#FFFFFF;}
</style>
<g>
	<path class="st0" d="M296.7,162c-8.2,8.1-19.5,13-31.9,13c-25.2,0-45.7-20.5-45.7-45.7c0-25.2,20.5-45.7,45.7-45.7
		c12.8,0,24.4,5.3,32.7,13.8l28.2-28.2c-15.5-15.7-37-25.4-60.9-25.4c-47.3,0-85.6,38.3-85.6,85.6c0,47.3,38.3,85.6,85.6,85.6
		c23.4,0,44.7-9.4,60.1-24.7L296.7,162z"/>
	<polygon class="st0" points="378,174.2 378,83.4 446,83.4 446,49.1 348.6,49.1 348.6,209.5 446,209.5 446,174.2 	"/>
	<polygon class="st0" points="501.4,117.5 597,211 597,47.6 564.3,47.6 564.3,138.5 469,47.6 469,211 501.6,211 	"/>
	<rect x="131.2" class="st1" width="14.1" height="256.7"/>
	<g>
		<path class="st2" d="M58.6,185.2L58.6,185.2c-4-0.4-6.8-4-6.3-8L63.9,74.4c0.4-4,4-6.8,8-6.3h0c4,0.4,6.8,4,6.3,8L66.5,178.8
			C66.1,182.8,62.5,185.6,58.6,185.2z"/>
		<path class="st2" d="M32.5,187.7L32.5,187.7c-4-0.4-6.8-4-6.3-8L37.8,77c0.4-4,4-6.8,8-6.3l0,0c4,0.4,6.8,4,6.3,8L40.5,181.4
			C40,185.3,36.4,188.2,32.5,187.7z"/>
		<path class="st2" d="M41.3,18.8c1-8.4-5.1-15.9-13.4-16.9C19.4,1,11.9,7,10.9,15.4c-0.7,5.8,2,11.2,6.5,14.3L0,182.3
			c-0.4,4,2.4,7.5,6.3,8c4,0.4,7.5-2.4,8-6.3L31.7,31.3C36.8,29.3,40.6,24.6,41.3,18.8z"/>
		<path class="st2" d="M85.1,229.4l17.3-152.4c0.4-4-2.4-7.5-6.3-8c-4-0.4-7.5,2.4-8,6.3L70.8,227.8c-5.1,2-8.9,6.7-9.5,12.5
			c-1,8.4,5.1,15.9,13.4,16.9c8.4,1,15.9-5.1,16.9-13.4C92.3,237.9,89.6,232.5,85.1,229.4z"/>
	</g>
	<rect x="336.6" y="120.7" class="st3" width="24.2" height="17.1"/>
	<path class="st2" d="M292.8,112.3h-14.5v7h-18.5v20.9h18.5v6.2h14.5H432v-34.1H292.8z M321.3,142.6h-28.6v-9.1h28.6V142.6z
		 M321.3,125.1h-28.6v-9h28.6V125.1z M355.9,135.8h-15.2v-13.1h15.2V135.8z"/>
</g>
</svg>
