<?xml version="1.0" encoding="utf-8"?>
<!-- Generator: Adobe Illustrator 21.0.2, SVG Export Plug-In . SVG Version: 6.00 Build 0)  -->
<svg version="1.1" id="Layer_1" xmlns="http://www.w3.org/2000/svg" xmlns:xlink="http://www.w3.org/1999/xlink" x="0px" y="0px"
	 viewBox="0 0 500 104.3" style="enable-background:new 0 0 500 104.3;" xml:space="preserve">
<style type="text/css">
	.st0{fill:#FFFFFF;}
	.st1{fill:#FF5600;}
</style>
<g>
	<g>
		<g>
			<path class="st0" d="M361.1,50.5c0,3.8-0.5,7.7-1.9,11.1c-1,3.4-2.9,6.7-5.3,9.1c-2.4,2.9-4.8,4.8-8.2,6.3
				c-3.4,1.4-6.7,2.4-11.1,2.4c-3.4,0-6.7-0.5-9.6-1.9s-5.3-3.4-7.2-5.8l0,0v32.7h-18.3V22.6h17.8v6.7l0,0c1.9-2.4,3.8-4.3,7.2-5.8
				c2.9-1.4,6.7-2.4,10.6-2.4c3.8,0,7.7,1,11.1,2.4s5.8,3.8,8.2,6.3c2.4,2.9,3.8,5.8,5.3,9.1C360.6,43.3,361.1,46.6,361.1,50.5z
				 M343.8,50.5c0-1.9-0.5-3.4-1-5.3c-0.5-1.9-1.4-3.4-2.4-4.3c-1-1.4-2.4-2.4-3.8-2.9c-1.4-1-3.4-1.4-5.8-1.4
				c-1.9,0-3.8,0.5-5.8,1.4c-1.4,0.5-2.9,1.9-3.8,2.9c-1,1.4-1.9,2.9-2.9,4.3c-0.5,1.9-1,3.4-1,5.3c0,1.9,0.5,3.4,1,5.3
				c0.5,1.9,1.4,3.4,2.9,4.3c1,1.4,2.4,2.4,4.3,3.4c1.4,1,3.4,1.4,5.8,1.4c1.9,0,3.8-0.5,5.8-1.4c1.4-1,2.9-1.9,3.8-3.4
				c1-1.4,1.9-2.9,2.4-4.8C343.3,54.3,343.8,52.4,343.8,50.5z"/>
			<g>
				<path class="st0" d="M0,78.4V0h19.2v78.4H0z"/>
				<path class="st0" d="M65.9,78.4V48.1c0-1.4,0-2.9-0.5-4.3s-0.5-2.4-1.4-3.8c-0.5-1-1.4-1.9-2.4-2.4c-1-0.5-2.4-1-3.8-1
					c-1.4,0-2.9,0.5-4.3,1c-1.4,0.5-2.4,1.4-2.9,2.4c-1,1-1.4,2.4-1.9,3.8c-0.5,1.9-0.5,3.4-0.5,4.8v29.8H29.8V23.1h17.8v7.7l0,0
					c0.5-1,1.4-2.4,2.4-3.4c1-1,2.4-1.9,3.8-2.9c1.4-1,2.9-1.4,4.8-1.9c1.9-0.5,3.4-1,5.3-1c3.8,0,6.7,0.5,9.6,1.9
					c2.4,1.4,4.8,2.9,6.3,5.3c1.4,1.9,2.9,4.3,3.4,7.2c0.5,2.9,1,5.3,1,8.2v34.1C84.1,78.4,65.9,78.4,65.9,78.4z"/>
				<path class="st0" d="M126.4,78.4h-19.7L85.6,23.1h20.2l11.5,35.6h0.5l11.5-35.6h19.2L126.4,78.4z"/>
				<path class="st0" d="M204.8,51.4c0,1,0,1.4,0,2.4s0,1.4,0,1.9h-39.9c0,1.4,0.5,2.9,1.4,4.3c1,1.4,1.9,2.4,2.9,3.4
					c1.4,1,2.4,1.4,4.3,1.9c1.4,0.5,2.9,1,4.8,1c2.9,0,5.3-0.5,7.2-1.4c1.9-1,3.8-2.4,4.8-4.3l12.5,8.2c-2.4,3.8-5.8,6.7-10.1,8.7
					c-4.3,1.9-9.1,2.9-14.9,2.9c-4.3,0-8.2-0.5-11.5-1.9c-3.8-1.4-6.7-3.4-9.6-5.8s-4.8-5.3-6.7-9.1c-1.4-3.8-2.4-7.7-2.4-12.5
					c0-4.3,1-8.7,2.4-12c1.4-3.8,3.8-6.7,6.3-9.1c2.9-2.4,5.8-4.3,9.6-5.8s7.7-1.9,11.5-1.9c3.8,0,7.7,0.5,11.1,1.9s6.2,3.4,8.7,5.8
					c2.4,2.4,4.3,5.8,5.8,9.6C203.8,42.8,204.8,46.6,204.8,51.4z M188,44.7c0-2.9-1-5.3-2.9-7.2c-1.9-1.9-4.3-2.9-8.2-2.9
					c-1.9,0-3.4,0.5-4.8,1c-1.4,0.5-2.9,1.4-3.8,2.4c-1,1-1.9,1.9-2.9,3.4c-0.5,1.4-1,2.4-1,3.8H188V44.7z"/>
				<path class="st0" d="M246.2,38.5c-1,0-1.4-0.5-2.4-0.5c-1,0-1.4,0-2.4,0c-2.4,0-4.3,0.5-6.3,1.4c-1.4,1-2.9,1.9-3.8,3.4
					c-1,1.4-1.9,2.4-1.9,4.3c-0.5,1.4-0.5,2.9-0.5,3.8v28.4h-18.3V23.6h17.3v8.2l0,0c1.4-2.9,3.4-5.3,5.8-6.7
					c2.4-1.9,5.8-2.9,9.1-2.9c1,0,1.4,0,1.9,0c0.5,0,1.4,0,1.9,0.5L246.2,38.5z"/>
				<path class="st0" d="M285.6,39.4c-1.4-1.4-3.4-2.4-5.3-3.4c-1.9-1-4.3-1.4-6.3-1.4c-1.9,0-3.4,0.5-4.8,1
					c-1.4,0.5-1.9,1.9-1.9,3.4s1,2.9,2.4,3.4c1.4,0.5,4.3,1.4,7.7,2.4c1.9,0.5,4.3,1,6.3,1.9c1.9,1,3.8,1.9,5.8,3.4
					c1.9,1.4,2.9,2.9,4.3,4.8c1,1.9,1.4,4.3,1.4,6.7c0,3.4-0.5,6.3-1.9,8.7c-1.4,2.4-3.4,4.3-5.3,5.8c-2.4,1.4-4.8,2.4-7.7,3.4
					c-2.9,0.5-5.8,1-8.7,1c-4.3,0-9.1-0.5-13.5-1.9c-4.3-1.4-7.7-3.4-10.6-6.3l10.1-10.6c1.4,1.9,3.8,3.4,5.8,4.3
					c2.4,1,4.8,1.9,7.7,1.9c1.4,0,2.9-0.5,4.3-1c1.4-0.5,1.9-1.9,1.9-3.8s-1-2.9-2.9-3.8c-1.9-1-4.3-1.4-8.2-2.4
					c-1.9-0.5-3.8-1-5.8-1.9c-1.9-1-3.8-1.9-5.3-2.9c-1.4-1.4-2.9-2.9-3.8-4.8c-1-1.9-1.4-3.8-1.4-6.7c0-3.4,0.5-6.3,1.9-8.7
					c1.4-2.4,3.4-4.3,5.3-5.8c2.4-1.4,4.8-2.4,7.2-3.4c2.9-0.5,5.3-1,8.2-1c4.3,0,8.2,0.5,12,1.9c3.8,1.4,7.2,3.4,10.1,5.8
					L285.6,39.4z"/>
				<path class="st0" d="M425.5,50.5c0,4.3-1,8.7-2.4,12c-1.4,3.8-3.8,6.7-6.7,9.1c-2.9,2.4-6.3,4.3-9.6,5.8
					c-3.8,1.4-7.7,1.9-12,1.9c-4.3,0-8.2-0.5-12-1.9c-3.8-1.4-7.2-3.4-9.6-5.8c-2.9-2.4-4.8-5.8-6.7-9.1c-1.4-3.8-2.4-7.7-2.4-12
					s1-8.7,2.4-12c1.4-3.8,3.8-6.7,6.7-9.1c2.9-2.4,6.3-4.3,9.6-5.8c3.8-1.4,7.7-1.9,12-1.9c4.3,0,8.2,0.5,12,1.9
					c3.8,1.4,6.7,3.4,9.6,5.8c2.9,2.4,4.8,5.8,6.7,9.1C425,42.3,425.5,46.2,425.5,50.5z M408.2,50.5c0-1.9-0.5-3.4-1-5.3
					c-0.5-1.9-1.4-3.4-2.4-4.3c-1-1.4-2.4-2.4-4.3-3.4c-1.4-1-3.4-1.4-5.8-1.4c-1.9,0-3.8,0.5-5.8,1.4c-1.4,1-2.9,1.9-3.8,3.4
					c-1,1.4-1.9,2.9-2.4,4.3c-0.5,1.9-1,3.4-1,5.3c0,1.9,0.5,3.4,1,5.3c0.5,1.9,1.4,3.4,2.4,4.8c1,1.4,2.4,2.4,4.3,3.4
					c1.4,1,3.4,1.4,5.8,1.4c1.9,0,3.8-0.5,5.8-1.4c1.4-1,2.9-1.9,4.3-3.4c1-1.4,1.9-2.9,2.4-4.8C407.7,54.3,408.2,52.4,408.2,50.5z"
					/>
				<path class="st0" d="M451.4,37v20.7c0,2.4,0.5,4.3,1.4,5.8c1,1.4,2.9,1.9,5.3,1.9c1,0,1.9,0,2.9,0c1,0,1.9-0.5,2.4-0.5v13.5
					c-1.4,0.5-2.9,1-4.8,1c-1.9,0.5-3.8,0.5-5.8,0.5c-3.8,0-6.7-0.5-9.1-1.4c-2.4-1-4.3-2.4-6.3-3.8c-1.4-1.9-2.4-3.8-3.4-6.3
					c-0.5-2.4-1-5.3-1-8.2V37h-8.7V23.1h8.7V8.7H451v14.4h13v13.5h-12.5V37z"/>
			</g>
		</g>
	</g>
	<path class="st1" d="M500,65.4c0,3.8-1.4,6.7-3.8,9.1s-5.8,3.8-9.1,3.8c-1.9,0-3.4-0.5-5.3-1c-1.4-0.5-2.9-1.4-4.3-2.9
		c-1.4-1-2.4-2.4-2.9-3.8c-0.5-1.4-1-3.4-1-5.3c0-1.9,0.5-3.4,1-4.8c0.5-1.4,1.4-2.9,2.9-4.3c1.4-1,2.9-1.9,4.3-2.9
		c1.4-0.5,3.4-1,5.3-1c3.4,0,6.7,1.4,9.1,3.8C498.6,58.7,500,62,500,65.4z"/>
</g>
</svg>
