<?xml version="1.0" encoding="utf-8"?>
<!-- Generator: Adobe Illustrator 21.0.2, SVG Export Plug-In . SVG Version: 6.00 Build 0)  -->
<svg version="1.1" id="Layer_1" xmlns="http://www.w3.org/2000/svg" xmlns:xlink="http://www.w3.org/1999/xlink" x="0px" y="0px"
	 viewBox="0 0 104 21.8" style="enable-background:new 0 0 104 21.8;" xml:space="preserve">
<style type="text/css">
	.st0{fill:#62269E;}
	.st1{fill:#FF5600;}
</style>
<g>
	<g>
		<g>
			<path class="st0" d="M75.1,10.5c0,0.8-0.1,1.6-0.4,2.3c-0.2,0.7-0.6,1.4-1.1,1.9c-0.5,0.6-1,1-1.7,1.3c-0.7,0.3-1.4,0.5-2.3,0.5
				c-0.7,0-1.4-0.1-2-0.4c-0.6-0.3-1.1-0.7-1.5-1.2h0v6.8h-3.8v-17H66v1.4H66c0.4-0.5,0.8-0.9,1.5-1.2c0.6-0.3,1.4-0.5,2.2-0.5
				c0.8,0,1.6,0.2,2.3,0.5c0.7,0.3,1.2,0.8,1.7,1.3c0.5,0.6,0.8,1.2,1.1,1.9C75,9,75.1,9.7,75.1,10.5z M71.5,10.5
				c0-0.4-0.1-0.7-0.2-1.1c-0.1-0.4-0.3-0.7-0.5-0.9C70.6,8.2,70.3,8,70,7.9c-0.3-0.2-0.7-0.3-1.2-0.3c-0.4,0-0.8,0.1-1.2,0.3
				C67.3,8,67,8.3,66.8,8.5c-0.2,0.3-0.4,0.6-0.6,0.9c-0.1,0.4-0.2,0.7-0.2,1.1c0,0.4,0.1,0.7,0.2,1.1c0.1,0.4,0.3,0.7,0.6,0.9
				c0.2,0.3,0.5,0.5,0.9,0.7c0.3,0.2,0.7,0.3,1.2,0.3c0.4,0,0.8-0.1,1.2-0.3c0.3-0.2,0.6-0.4,0.8-0.7c0.2-0.3,0.4-0.6,0.5-1
				C71.4,11.3,71.5,10.9,71.5,10.5z"/>
			<g>
				<path class="st0" d="M0,16.3V0h4v16.3H0z"/>
				<path class="st0" d="M13.7,16.3V10c0-0.3,0-0.6-0.1-0.9c-0.1-0.3-0.1-0.5-0.3-0.8c-0.1-0.2-0.3-0.4-0.5-0.5
					c-0.2-0.1-0.5-0.2-0.8-0.2c-0.3,0-0.6,0.1-0.9,0.2c-0.3,0.1-0.5,0.3-0.6,0.5c-0.2,0.2-0.3,0.5-0.4,0.8C10,9.5,10,9.8,10,10.1
					v6.2H6.2V4.8h3.7v1.6h0c0.1-0.2,0.3-0.5,0.5-0.7c0.2-0.2,0.5-0.4,0.8-0.6c0.3-0.2,0.6-0.3,1-0.4c0.4-0.1,0.7-0.2,1.1-0.2
					c0.8,0,1.4,0.1,2,0.4c0.5,0.3,1,0.6,1.3,1.1c0.3,0.4,0.6,0.9,0.7,1.5c0.1,0.6,0.2,1.1,0.2,1.7v7.1H13.7z"/>
				<path class="st0" d="M26.3,16.3h-4.1L17.8,4.8h4.2l2.4,7.4h0.1l2.4-7.4h4L26.3,16.3z"/>
				<path class="st0" d="M42.6,10.7c0,0.2,0,0.3,0,0.5c0,0.2,0,0.3,0,0.4h-8.3c0,0.3,0.1,0.6,0.3,0.9c0.2,0.3,0.4,0.5,0.6,0.7
					c0.3,0.2,0.5,0.3,0.9,0.4c0.3,0.1,0.6,0.2,1,0.2c0.6,0,1.1-0.1,1.5-0.3c0.4-0.2,0.8-0.5,1-0.9l2.6,1.7c-0.5,0.8-1.2,1.4-2.1,1.8
					c-0.9,0.4-1.9,0.6-3.1,0.6c-0.9,0-1.7-0.1-2.4-0.4c-0.8-0.3-1.4-0.7-2-1.2c-0.6-0.5-1-1.1-1.4-1.9c-0.3-0.8-0.5-1.6-0.5-2.6
					c0-0.9,0.2-1.8,0.5-2.5c0.3-0.8,0.8-1.4,1.3-1.9c0.6-0.5,1.2-0.9,2-1.2c0.8-0.3,1.6-0.4,2.4-0.4c0.8,0,1.6,0.1,2.3,0.4
					c0.7,0.3,1.3,0.7,1.8,1.2c0.5,0.5,0.9,1.2,1.2,2C42.4,8.9,42.6,9.7,42.6,10.7z M39.1,9.3c0-0.6-0.2-1.1-0.6-1.5
					c-0.4-0.4-0.9-0.6-1.7-0.6c-0.4,0-0.7,0.1-1,0.2c-0.3,0.1-0.6,0.3-0.8,0.5c-0.2,0.2-0.4,0.4-0.6,0.7c-0.1,0.3-0.2,0.5-0.2,0.8
					H39.1z"/>
				<path class="st0" d="M51.2,8c-0.2,0-0.3-0.1-0.5-0.1c-0.2,0-0.3,0-0.5,0c-0.5,0-0.9,0.1-1.3,0.3c-0.3,0.2-0.6,0.4-0.8,0.7
					c-0.2,0.3-0.4,0.5-0.4,0.9c-0.1,0.3-0.1,0.6-0.1,0.8v5.9h-3.8V4.9h3.6v1.7h0c0.3-0.6,0.7-1.1,1.2-1.4c0.5-0.4,1.2-0.6,1.9-0.6
					c0.2,0,0.3,0,0.4,0c0.1,0,0.3,0,0.4,0.1L51.2,8z"/>
				<path class="st0" d="M59.4,8.2c-0.3-0.3-0.7-0.5-1.1-0.7c-0.4-0.2-0.9-0.3-1.3-0.3c-0.4,0-0.7,0.1-1,0.2
					c-0.3,0.1-0.4,0.4-0.4,0.7c0,0.3,0.2,0.6,0.5,0.7c0.3,0.1,0.9,0.3,1.6,0.5c0.4,0.1,0.9,0.2,1.3,0.4c0.4,0.2,0.8,0.4,1.2,0.7
					c0.4,0.3,0.6,0.6,0.9,1c0.2,0.4,0.3,0.9,0.3,1.4c0,0.7-0.1,1.3-0.4,1.8c-0.3,0.5-0.7,0.9-1.1,1.2c-0.5,0.3-1,0.5-1.6,0.7
					c-0.6,0.1-1.2,0.2-1.8,0.2c-0.9,0-1.9-0.1-2.8-0.4c-0.9-0.3-1.6-0.7-2.2-1.3l2.1-2.2c0.3,0.4,0.8,0.7,1.2,0.9
					c0.5,0.2,1,0.4,1.6,0.4c0.3,0,0.6-0.1,0.9-0.2c0.3-0.1,0.4-0.4,0.4-0.8c0-0.4-0.2-0.6-0.6-0.8c-0.4-0.2-0.9-0.3-1.7-0.5
					c-0.4-0.1-0.8-0.2-1.2-0.4c-0.4-0.2-0.8-0.4-1.1-0.6c-0.3-0.3-0.6-0.6-0.8-1c-0.2-0.4-0.3-0.8-0.3-1.4c0-0.7,0.1-1.3,0.4-1.8
					c0.3-0.5,0.7-0.9,1.1-1.2c0.5-0.3,1-0.5,1.5-0.7c0.6-0.1,1.1-0.2,1.7-0.2c0.9,0,1.7,0.1,2.5,0.4c0.8,0.3,1.5,0.7,2.1,1.2
					L59.4,8.2z"/>
				<path class="st0" d="M88.5,10.5c0,0.9-0.2,1.8-0.5,2.5c-0.3,0.8-0.8,1.4-1.4,1.9c-0.6,0.5-1.3,0.9-2,1.2
					c-0.8,0.3-1.6,0.4-2.5,0.4c-0.9,0-1.7-0.1-2.5-0.4c-0.8-0.3-1.5-0.7-2-1.2c-0.6-0.5-1-1.2-1.4-1.9c-0.3-0.8-0.5-1.6-0.5-2.5
					c0-0.9,0.2-1.8,0.5-2.5c0.3-0.8,0.8-1.4,1.4-1.9c0.6-0.5,1.3-0.9,2-1.2c0.8-0.3,1.6-0.4,2.5-0.4c0.9,0,1.7,0.1,2.5,0.4
					c0.8,0.3,1.4,0.7,2,1.2c0.6,0.5,1,1.2,1.4,1.9C88.4,8.8,88.5,9.6,88.5,10.5z M84.9,10.5c0-0.4-0.1-0.7-0.2-1.1
					c-0.1-0.4-0.3-0.7-0.5-0.9c-0.2-0.3-0.5-0.5-0.9-0.7c-0.3-0.2-0.7-0.3-1.2-0.3c-0.4,0-0.8,0.1-1.2,0.3c-0.3,0.2-0.6,0.4-0.8,0.7
					c-0.2,0.3-0.4,0.6-0.5,0.9c-0.1,0.4-0.2,0.7-0.2,1.1c0,0.4,0.1,0.7,0.2,1.1c0.1,0.4,0.3,0.7,0.5,1c0.2,0.3,0.5,0.5,0.9,0.7
					c0.3,0.2,0.7,0.3,1.2,0.3c0.4,0,0.8-0.1,1.2-0.3c0.3-0.2,0.6-0.4,0.9-0.7c0.2-0.3,0.4-0.6,0.5-1C84.8,11.3,84.9,10.9,84.9,10.5z
					"/>
				<path class="st0" d="M93.9,7.7V12c0,0.5,0.1,0.9,0.3,1.2c0.2,0.3,0.6,0.4,1.1,0.4c0.2,0,0.4,0,0.6,0c0.2,0,0.4-0.1,0.5-0.1
					l0,2.8c-0.3,0.1-0.6,0.2-1,0.2c-0.4,0.1-0.8,0.1-1.2,0.1c-0.8,0-1.4-0.1-1.9-0.3c-0.5-0.2-0.9-0.5-1.3-0.8
					c-0.3-0.4-0.5-0.8-0.7-1.3c-0.1-0.5-0.2-1.1-0.2-1.7V7.7h-1.8V4.8h1.8v-3h3.7v3h2.7v2.8H93.9z"/>
			</g>
		</g>
	</g>
	<path class="st1" d="M104,13.6c0,0.8-0.3,1.4-0.8,1.9c-0.5,0.5-1.2,0.8-1.9,0.8c-0.4,0-0.7-0.1-1.1-0.2c-0.3-0.1-0.6-0.3-0.9-0.6
		c-0.3-0.2-0.5-0.5-0.6-0.8c-0.1-0.3-0.2-0.7-0.2-1.1c0-0.4,0.1-0.7,0.2-1c0.1-0.3,0.3-0.6,0.6-0.9c0.3-0.2,0.6-0.4,0.9-0.6
		c0.3-0.1,0.7-0.2,1.1-0.2c0.7,0,1.4,0.3,1.9,0.8C103.7,12.2,104,12.9,104,13.6z"/>
</g>
</svg>
