<?xml version="1.0" encoding="UTF-8"?>
<!-- Generator: Adobe Illustrator 21.0.2, SVG Export Plug-In . SVG Version: 6.00 Build 0)  -->
<svg version="1.1" id="Layer_1" xmlns="http://www.w3.org/2000/svg" xmlns:xlink="http://www.w3.org/1999/xlink" x="0px" y="0px" viewBox="0 0 1255 273" style="enable-background:new 0 0 1255 273;" xml:space="preserve">
<style type="text/css">
	.st0{clip-path:url(#SVGID_2_);fill:url(#SVGID_3_);}
	.st1{clip-path:url(#SVGID_5_);fill:url(#SVGID_6_);}
</style>
<g>
	<defs>
		<path id="SVGID_1_" d="M357.8,96.3c0.6,0.4,1,0.8,1.4,1.3c0.4,0.5,0.6,1.1,0.6,1.9c0,0.6-0.1,1.2-0.4,1.8l-6.9,12.9    c-0.8,1.2-1.7,1.8-2.6,1.8c-0.3,0-0.6-0.1-1-0.2c-0.4-0.1-0.8-0.3-1.1-0.6c-3-2.3-6.2-4.2-9.6-5.5c-3.4-1.3-7.1-2-10.9-2    c-4.8,0-9.3,1-13.3,3c-4,2-7.5,4.7-10.5,8.2c-2.9,3.4-5.2,7.5-6.9,12.1c-1.6,4.6-2.5,9.6-2.5,14.9c0,5.3,0.8,10.2,2.5,14.8    s3.9,8.6,6.9,12.1c2.9,3.4,6.4,6.1,10.5,8.1c4,2,8.5,3,13.3,3c3.8,0,7.5-0.7,11-2c3.5-1.3,6.7-3.1,9.7-5.5    c0.4-0.3,0.8-0.5,1.2-0.6c0.4-0.1,0.7-0.2,1-0.2c0.8,0,1.6,0.6,2.5,1.7l7.1,13c0.3,0.6,0.4,1.2,0.4,1.7c0,0.7-0.2,1.3-0.6,1.8    c-0.4,0.5-0.9,0.9-1.4,1.3c-4.5,3.3-9.3,5.8-14.4,7.6c-5.2,1.8-10.6,2.7-16.3,2.7c-5,0-9.9-0.7-14.5-2.1c-4.6-1.4-9-3.4-13-6    c-4-2.6-7.7-5.7-11-9.3c-3.3-3.6-6.1-7.6-8.5-12c-2.4-4.4-4.2-9.1-5.5-14.2c-1.3-5.1-1.9-10.4-1.9-15.9c0-5.5,0.6-10.8,1.9-15.9    c1.3-5.1,3.1-9.8,5.5-14.3c2.4-4.5,5.2-8.5,8.5-12.1c3.3-3.6,7-6.8,11-9.3c4-2.6,8.4-4.6,13-6c4.6-1.4,9.5-2.1,14.5-2.1    c5.7,0,11,0.9,16.1,2.6C348.5,90.5,353.3,93,357.8,96.3z M374.9,146c0-5.5,0.6-10.8,1.9-15.9c1.3-5.1,3.1-9.9,5.5-14.3    c2.4-4.4,5.2-8.5,8.5-12.1c3.3-3.6,7-6.8,11-9.3c4-2.6,8.4-4.6,13-6c4.6-1.4,9.5-2.1,14.5-2.1c5,0,9.8,0.7,14.4,2.1    c4.6,1.4,9,3.4,13,6c4,2.6,7.7,5.7,11.1,9.3c3.3,3.7,6.2,7.7,8.5,12.1c2.4,4.4,4.2,9.2,5.5,14.3c1.3,5.1,2,10.4,2,15.9    c0,5.5-0.7,10.8-2,15.9c-1.3,5.1-3.1,9.8-5.5,14.2c-2.4,4.4-5.2,8.5-8.5,12.1c-3.3,3.6-7,6.7-11.1,9.3c-4,2.6-8.4,4.6-13,6    c-4.6,1.4-9.5,2.1-14.5,2.1c-5,0-9.9-0.7-14.5-2.1c-4.6-1.4-9-3.4-13-6c-4-2.6-7.7-5.7-11-9.3c-3.3-3.6-6.1-7.6-8.5-12    c-2.4-4.4-4.2-9.1-5.5-14.2C375.5,156.8,374.9,151.5,374.9,146z M395.5,145.8c0,5.3,0.9,10.2,2.6,14.8c1.7,4.6,4.1,8.6,7.1,12    c3,3.4,6.6,6.1,10.7,8c4.1,2,8.6,3,13.4,3c4.8,0,9.2-1,13.3-3c4.1-2,7.7-4.7,10.7-8c3-3.4,5.4-7.4,7.2-12    c1.7-4.6,2.6-9.5,2.6-14.8c0-5.2-0.9-10.1-2.6-14.7c-1.7-4.6-4.1-8.6-7.2-12c-3-3.4-6.6-6.1-10.7-8.1c-4.1-2-8.5-3-13.3-3    c-4.8,0-9.3,1-13.4,3c-4.1,2-7.7,4.7-10.7,8.1s-5.4,7.4-7.1,12C396.4,135.7,395.5,140.6,395.5,145.8z M508.5,91.3    c0.1-1,0.5-1.8,1.1-2.5c0.6-0.7,1.4-1,2.4-1h17.8c1.7,0,2.8,1,3.3,3l25.2,76.9c4.2-12.9,8.5-25.7,12.7-38.4    c4.3-12.7,8.5-25.5,12.7-38.4c0.7-2,1.8-3,3.3-3h17.9c1,0,1.7,0.3,2.3,1c0.6,0.7,0.9,1.5,1,2.4c1.8,18.3,3.5,36.5,5.3,54.6    c1.8,18.1,3.6,36.3,5.4,54.5v0.2c0,2.1-1,3.2-3.1,3.2h-13.8c-2.1,0-3.3-1.1-3.4-3.4l-7.3-73.9l-23.7,71.9c-0.2,0.7-0.6,1.4-1.1,2    c-0.5,0.6-1.1,0.9-1.6,0.9h-12.8c-0.6,0-1.2-0.3-1.7-0.9c-0.5-0.6-0.9-1.3-1.1-2.1c-3.9-12-7.8-24-11.8-35.9    c-3.9-11.9-7.9-23.9-11.9-35.9l-7.3,73.8c0,2.3-1.1,3.4-3.3,3.4H501c-2.1,0-3.1-1.1-3.1-3.4L508.5,91.3z M637.1,91.6    c0-2.5,1-3.8,3.1-3.8h68.7c1.2,0,2.1,0.4,2.6,1.1c0.5,0.8,0.8,1.7,0.8,2.9v13.8c0,0.9-0.3,1.8-0.9,2.5c-0.6,0.7-1.5,1.1-2.7,1.1    h-50.7v23.7h39.1c1-0.1,1.7,0.1,2.3,0.7c0.6,0.5,0.9,1.5,0.9,2.8v14.1c0,0.9-0.2,1.8-0.7,2.5c-0.5,0.7-1.2,1.1-2.3,1.1h-39.2v28.4    h52.5c1.3,0,2.2,0.3,2.6,0.9s0.6,1.6,0.6,2.9v14.3c0,2.2-1,3.3-3.1,3.3h-70.6c-0.9,0-1.6-0.3-2.2-0.8c-0.6-0.5-0.9-1.4-0.9-2.5    V91.6z M731,91.5c0-2.4,1-3.7,3.1-3.7h43.6c4.8,0,9.3,1,13.5,3c4.2,2,7.8,4.7,10.9,8c3.1,3.4,5.6,7.4,7.3,12    c1.8,4.6,2.7,9.5,2.7,14.6c0,3.6-0.5,7-1.4,10.3c-0.9,3.3-2.2,6.3-3.8,9.1c-1.6,2.8-3.5,5.4-5.8,7.6c-2.2,2.3-4.7,4.2-7.4,5.7    l18.5,40.1c0.1,0.5,0.3,1,0.5,1.6c0.2,0.5,0.4,1.1,0.4,1.6c0,1.6-0.8,2.3-2.5,2.3h-16.5c-1.7,0-2.9-1-3.4-2.9l-17.3-37.5    c-0.8,0-1.6,0-2.5,0c-0.9,0-2.1,0-3.6,0c-1.5,0-3.6,0-6.1,0c-2.5,0-5.7,0-9.7,0v37c0,2.2-1.1,3.4-3.3,3.4h-14.3    c-0.9,0-1.7-0.3-2.3-0.8c-0.6-0.5-0.9-1.4-0.9-2.5V91.5z M791.1,125.6c0-2.2-0.4-4.4-1.1-6.5c-0.8-2.1-1.8-4-3.2-5.6    c-1.4-1.7-3-3-4.9-4.1c-1.9-1-4-1.6-6.2-1.8c-1.7,0-3.3-0.1-4.9-0.1c-1.6,0-3.2,0-5,0h-14v36.3h18.8c0.9,0,1.8,0,2.7,0    c0.8,0,1.7-0.1,2.7-0.2c2.2-0.2,4.3-0.7,6.2-1.7c1.9-1,3.5-2.3,4.8-3.9c1.3-1.6,2.4-3.5,3.1-5.6    C790.7,130.1,791.1,127.9,791.1,125.6z M909.8,96.3c0.6,0.4,1,0.8,1.4,1.3c0.4,0.5,0.6,1.1,0.6,1.9c0,0.6-0.1,1.2-0.4,1.8    l-6.9,12.9c-0.8,1.2-1.7,1.8-2.6,1.8c-0.3,0-0.6-0.1-1-0.2c-0.4-0.1-0.8-0.3-1.1-0.6c-3-2.3-6.2-4.2-9.6-5.5    c-3.4-1.3-7.1-2-10.9-2c-4.8,0-9.3,1-13.3,3c-4,2-7.5,4.7-10.5,8.2c-2.9,3.4-5.2,7.5-6.9,12.1c-1.6,4.6-2.5,9.6-2.5,14.9    c0,5.3,0.8,10.2,2.5,14.8c1.6,4.6,3.9,8.6,6.9,12.1c2.9,3.4,6.4,6.1,10.5,8.1c4,2,8.5,3,13.3,3c3.8,0,7.5-0.7,11-2    c3.5-1.3,6.7-3.1,9.7-5.5c0.4-0.3,0.8-0.5,1.2-0.6c0.4-0.1,0.7-0.2,1-0.2c0.8,0,1.6,0.6,2.5,1.7l7.1,13c0.3,0.6,0.4,1.2,0.4,1.7    c0,0.7-0.2,1.3-0.6,1.8c-0.4,0.5-0.9,0.9-1.4,1.3c-4.5,3.3-9.3,5.8-14.4,7.6c-5.2,1.8-10.6,2.7-16.3,2.7c-5,0-9.9-0.7-14.5-2.1    c-4.6-1.4-9-3.4-13-6c-4-2.6-7.7-5.7-11-9.3c-3.3-3.6-6.1-7.6-8.5-12c-2.4-4.4-4.2-9.1-5.5-14.2c-1.3-5.1-1.9-10.4-1.9-15.9    c0-5.5,0.6-10.8,1.9-15.9c1.3-5.1,3.1-9.8,5.5-14.3c2.4-4.5,5.2-8.5,8.5-12.1c3.3-3.6,7-6.8,11-9.3c4-2.6,8.4-4.6,13-6    c4.6-1.4,9.5-2.1,14.5-2.1c5.7,0,11,0.9,16.1,2.6C900.5,90.5,905.3,93,909.8,96.3z M931.2,91.3c0-0.9,0.3-1.7,0.8-2.4    c0.5-0.7,1.3-1,2.3-1h14.1c0.8,0,1.6,0.3,2.3,0.9c0.7,0.6,1.1,1.5,1.1,2.5v109.2c0,2.3-1.1,3.4-3.3,3.4h-14.1    c-2.1,0-3.1-1.1-3.1-3.4V91.3z M967.7,201c0.2-1,0.5-2,0.8-2.9c0.3-0.9,0.6-1.7,0.8-2.4l38.4-104.9c0.1-0.6,0.5-1.2,1.2-1.9    c0.6-0.7,1.5-1.1,2.6-1.1h11.5c1.1,0,2,0.3,2.5,0.9c0.5,0.6,0.9,1.2,1.1,1.6l2.4,6.1l37.6,103.2c0,0.2,0,0.4,0.1,0.8    c0.1,0.4,0.1,0.7,0.1,1c0,1.6-1,2.3-3.1,2.3h-14c-1,0-1.9-0.2-2.4-0.7c-0.6-0.5-1-1.2-1.4-2.2l-1.3-3.6c-0.9-2.5-1.8-5-2.7-7.5    c-0.9-2.5-1.8-5-2.6-7.6h-44c-1.2,3.6-2.4,7.1-3.6,10.3c-1.2,3.2-2.2,6-3,8.4c-0.7,1.9-1.9,2.9-3.7,2.9h-14.3    c-0.9,0-1.6-0.2-2.2-0.5c-0.5-0.4-0.8-0.9-0.8-1.6C967.6,201.4,967.6,201.2,967.7,201z M1017.3,117.6c-2.6,7.2-5.1,14.6-7.7,22.3    c-2.5,7.7-5.1,15.1-7.7,22.3h30.4L1017.3,117.6z M1121,109.4c0-1.4,0.4-2.5,1.1-3.4c0.7-0.9,1.8-1.4,3.1-1.4h11.8    c0.5,0,1.1,0.1,1.6,0.4c0.5,0.2,1,0.6,1.5,1c0.4,0.4,0.8,1,1.1,1.5c0.3,0.6,0.4,1.2,0.4,1.9v89.8c0,3.1-1.5,4.7-4.5,4.7h-11.8    c-2.9,0-4.3-1.6-4.3-4.7V109.4z M1161.5,154.4c0-4.7,0.6-9.3,1.7-13.7c1.1-4.4,2.7-8.5,4.7-12.3c2-3.8,4.5-7.3,7.3-10.4    c2.9-3.1,6-5.8,9.5-8c3.5-2.2,7.2-3.9,11.1-5.2c4-1.2,8.1-1.8,12.4-1.8c4.3,0,8.4,0.6,12.4,1.8c4,1.2,7.7,2.9,11.1,5.2    c3.4,2.2,6.6,4.9,9.4,8c2.8,3.1,5.3,6.6,7.3,10.4c2,3.8,3.6,7.9,4.7,12.3c1.1,4.4,1.7,9,1.7,13.7c0,4.7-0.6,9.3-1.7,13.7    c-1.1,4.4-2.7,8.5-4.7,12.2c-2,3.8-4.5,7.2-7.3,10.4c-2.9,3.1-6,5.8-9.4,8c-3.4,2.2-7.2,3.9-11.1,5.2c-4,1.2-8.1,1.8-12.4,1.8    c-4.3,0-8.5-0.6-12.4-1.8c-4-1.2-7.7-2.9-11.1-5.2c-3.5-2.2-6.6-4.9-9.5-8c-2.8-3.1-5.3-6.6-7.3-10.4c-2-3.8-3.6-7.9-4.7-12.2    S1161.5,159.2,1161.5,154.4z M1181.6,154.4c0,4.2,0.7,8.1,2,11.8c1.3,3.7,3.2,7,5.6,9.7c2.4,2.8,5.2,4.9,8.4,6.6    c3.3,1.6,6.8,2.4,10.7,2.4c3.8,0,7.2-0.8,10.4-2.4c3.2-1.6,6-3.8,8.3-6.6c2.3-2.8,4.1-6,5.5-9.7c1.3-3.7,2-7.7,2-11.8    c0-4.1-0.7-8-2-11.8c-1.3-3.8-3.1-7-5.5-9.9c-2.3-2.8-5.1-5.1-8.3-6.8c-3.2-1.7-6.7-2.5-10.4-2.5c-3.9,0-7.4,0.8-10.7,2.5    c-3.3,1.7-6.1,4-8.4,6.8c-2.4,2.8-4.2,6.1-5.6,9.9C1182.2,146.4,1181.6,150.3,1181.6,154.4z M1131.3,70.1    c-5.9,0-10.8,4.8-10.8,10.8s4.8,10.8,10.8,10.8s10.8-4.8,10.8-10.8S1137.2,70.1,1131.3,70.1z M1092.5,182.4    c-5.9,0-10.8,4.8-10.8,10.8s4.8,10.8,10.8,10.8c5.9,0,10.8-4.8,10.8-10.8S1098.4,182.4,1092.5,182.4z"/>
	</defs>
	<clipPath id="SVGID_2_">
		<use xlink:href="#SVGID_1_" style="overflow:visible;"/>
	</clipPath>
	<linearGradient id="SVGID_3_" gradientUnits="userSpaceOnUse" x1="719.5978" y1="-91.6478" x2="806.4498" y2="400.9142">
		<stop offset="0" style="stop-color:#00A3E4"/>
		<stop offset="0.9453" style="stop-color:#7855A3"/>
		<stop offset="1" style="stop-color:#7F509F"/>
	</linearGradient>
	<rect x="262.9" y="-11.1" class="st0" width="1000.3" height="331.5"/>
</g>
<g>
	<defs>
		<path id="SVGID_4_" d="M205.6,43.3c-15.2-22-38.1-36.7-64.4-41.5C89.6-7.5,40.6,23.3,26.8,73.6l-0.4-0.1L0.4,217    c-1.1,6,0.2,12,3.7,17c3.5,5,8.7,8.3,14.6,9.4c6,1.1,12-0.2,17-3.7c5-3.5,8.3-8.7,9.4-14.6l9.4-52c1.7,1.6,3.5,3.2,5.3,4.7    L47.6,246c-1.1,6,0.2,12,3.7,17c3.5,5,8.7,8.3,14.6,9.4c1.3,0.2,2.7,0.4,4.1,0.4c11,0,20.4-7.9,22.4-18.7l10.1-56    c1,0.2,2,0.4,3,0.6c1,0.2,2,0.3,3,0.5l-7.6,42.1c-1.1,6,0.2,12,3.7,17c3.5,5,8.7,8.3,14.6,9.4c1.4,0.2,2.7,0.4,4.1,0.4    c11,0,20.4-7.9,22.4-18.7l9.8-54.3c2.3-0.8,4.5-1.6,6.6-2.5l-6.6,36.5c-2.2,12.3,6,24.2,18.3,26.4c5.9,1.1,12.1-0.3,17-3.7    c5-3.5,8.3-8.7,9.4-14.6l21.6-119.2l0.2-1.2l0,0C226.4,91,220.5,64.9,205.6,43.3z M166.3,231.1l8.1-44.8c2.3-1.4,4.2-2.6,5.9-3.8    c8.6-6,16.1-13.1,22.4-21.3l-13.4,74.1c-0.6,3.1-2.3,5.8-4.9,7.5c-2.6,1.8-5.7,2.5-8.8,1.9C169.4,243.6,165.1,237.5,166.3,231.1z     M129.9,255c-2.6,1.8-5.7,2.5-8.8,1.9c-3.1-0.6-5.8-2.3-7.5-4.9c-1.8-2.6-2.5-5.7-1.9-8.8l7.8-43c8.2,0.3,16.3-0.3,24.2-2    l-8.9,49.1C134.2,250.6,132.5,253.3,129.9,255z M107.4,187.9c-2.5-0.4-5.1-1-7.9-1.8l-5.8-1.6l-12.3,67.7    c-1.1,6.4-7.3,10.6-13.6,9.4c-3.1-0.6-5.8-2.3-7.5-4.9c-1.8-2.6-2.5-5.7-1.9-8.8L72,173.2l-2.7-2c-5.2-3.9-9.9-8.4-14-13.2    l-7.6-8.9l-13.4,74.2c-0.6,3.1-2.3,5.8-4.9,7.5c-2.6,1.8-5.7,2.4-8.8,1.9c-3.1-0.6-5.8-2.3-7.5-4.9c-1.8-2.6-2.5-5.7-1.9-8.8    L35.8,83.4l0.5-2.3c10.3-47,55.5-77.1,102.8-68.5c23.4,4.2,43.8,17.3,57.3,36.9c13.6,19.6,18.7,43.2,14.4,66.6    c-4.2,23.4-17.3,43.8-36.9,57.3C154.5,187,130.8,192.2,107.4,187.9z M95,93.3c0.3,3.1-0.5,6-2.1,8.2c-1.3,1.7-2.9,2.8-4.8,3.2    c-0.6,0.1-1.1,0.2-1.7,0.2c-2.6,0-5-1.2-7-3.4c-2-2.2-3.2-5.1-3.5-8.2c-0.3-3.1,0.5-6,2.1-8.2c1.6-2.2,3.9-3.4,6.5-3.4    C89.8,81.7,94.5,86.9,95,93.3z M169.7,77.9c-0.3-3.1,0.5-6,2.1-8.2c1.6-2.2,3.9-3.4,6.5-3.4c5.3,0,10,5.2,10.5,11.6    c0.3,3.1-0.5,6-2.1,8.2c-1.3,1.7-2.9,2.8-4.8,3.2c-0.6,0.1-1.1,0.2-1.7,0.2c-2.6,0-5-1.2-7-3.4C171.2,83.9,170,81,169.7,77.9z     M126.2,116.6c-3.5-1.2-8.6-3-10.5-6.5c-1.5-2.8-0.6-6.5,1.9-8.4c3.4-2.6,6.2-0.3,9.3,1.3c10.1,5.3,21.2,1.9,28.2-6.7    c0.1-0.1,0.2-0.2,0.3-0.3c2.6-2.6,6.3-2.3,8.6,0.5c2.7,3.2,1.8,6.9-0.8,9.9c-5.9,6.9-14.5,11.2-23.6,11.9    C135.2,118.7,130.6,118.1,126.2,116.6z"/>
	</defs>
	<clipPath id="SVGID_5_">
		<use xlink:href="#SVGID_4_" style="overflow:visible;"/>
	</clipPath>
	<linearGradient id="SVGID_6_" gradientUnits="userSpaceOnUse" x1="118.3067" y1="300.6839" x2="118.3067" y2="-53.6762">
		<stop offset="0" style="stop-color:#7F509F"/>
		<stop offset="0.2106" style="stop-color:#576AB5"/>
		<stop offset="0.4445" style="stop-color:#3183C9"/>
		<stop offset="0.6616" style="stop-color:#1694D8"/>
		<stop offset="0.8536" style="stop-color:#069FE1"/>
		<stop offset="1" style="stop-color:#00A3E4"/>
	</linearGradient>
	<rect x="-60.4" y="-53.7" class="st1" width="357.4" height="354.4"/>
</g>
</svg>